<?xml version="1.0" standalone="no"?>
<!DOCTYPE svg PUBLIC "-//W3C//DTD SVG 1.1//EN" "http://www.w3.org/Graphics/SVG/1.1/DTD/svg11.dtd" >
<svg xmlns="http://www.w3.org/2000/svg">
<metadata></metadata>
<defs>
<font id="copasetic_nfregular" horiz-adv-x="313" >
<font-face units-per-em="2048" ascent="1802" descent="-246" />
<missing-glyph horiz-adv-x="614" />
<glyph horiz-adv-x="2048" />
<glyph horiz-adv-x="2048" />
<glyph unicode="&#xd;" horiz-adv-x="2048" />
<glyph unicode=" "  horiz-adv-x="614" />
<glyph unicode="&#x09;" horiz-adv-x="614" />
<glyph unicode="&#xa0;" horiz-adv-x="614" />
<glyph unicode="!" d="M49 84q0 44 31 77q30 32 76 32q44 0 76 -32t32 -77q0 -46 -32 -76q-33 -31 -76 -31q-45 0 -76 31t-31 76zM72 225v1313h170v-1313h-170z" />
<glyph unicode="&#x22;" horiz-adv-x="538" d="M49 1452q0 48 31 82q30 33 72 33q51 0 81 -33q31 -34 31 -76q0 -9 -1 -17q-1 -11 -9 -28l-109 -235l-65 30l63 144q-41 7 -68 36q-26 28 -26 64zM274 1452q0 48 31 82q30 33 72 33q52 0 82 -33t30 -76q0 -16 -10 -45l-108 -235l-66 30l64 144q-42 7 -69 36q-26 28 -26 64 z" />
<glyph unicode="#" horiz-adv-x="931" d="M49 0l168 745h-147v170h186l27 117h-213v170h249l78 340h164l-78 -340h82l78 340h164l-78 -340h154v-170h-191l-26 -117h217v-170h-256l-168 -745h-164l168 745h-82l-168 -745h-164zM420 915h82l26 117h-82z" />
<glyph unicode="$" horiz-adv-x="815" d="M49 461l158 63q23 -59 78 -95q52 -34 112 -34q40 0 77 17t64 44q28 28 44 63t16 75q0 55 -34 92q-36 39 -85 65q-59 31 -111 52q-63 25 -112 57q-51 33 -85 79t-34 118q0 92 56 162q55 69 141 90v233h170v-252q52 -24 90 -69q35 -42 51 -103l-164 -39q-6 29 -30 48 q-25 20 -56 20q-33 0 -58 -24q-26 -24 -30 -52q0 -41 36 -63t87 -45l55 -25q57 -26 114 -59q49 -28 89 -71q35 -38 57 -91q21 -51 21 -119q0 -62 -19 -118q-19 -54 -54 -102q-36 -48 -83 -81q-51 -36 -106 -53v-244h-170v231q-94 16 -171 77q-76 59 -114 153z" />
<glyph unicode="%" horiz-adv-x="1159" d="M49 1280q0 51 22 101q21 48 57 84q38 38 84 58q48 21 101 21q54 0 102 -21q45 -20 85 -58q37 -35 58 -84q22 -50 22 -101t-22 -101q-21 -49 -58 -84q-40 -38 -85 -58q-48 -21 -102 -21q-53 0 -101 21q-46 20 -84 58q-36 36 -57 84q-22 50 -22 101zM217 1280q0 -39 29 -68 q28 -28 67 -28q42 0 69 28q28 30 28 68q0 41 -28 69q-27 27 -69 27q-39 0 -67 -27q-29 -27 -29 -69zM229 0l512 1542h168l-512 -1542h-168zM580 266q0 54 21 102t57 84t84 57t102 21q53 0 101 -21q47 -21 85 -57q38 -37 59 -84q21 -48 21 -102q0 -53 -21 -101 q-21 -47 -59 -84q-38 -36 -85 -57q-50 -22 -101 -22q-52 0 -102 22q-48 21 -84 57t-57 84t-21 101zM748 266q0 -39 28 -67q29 -29 68 -29q41 0 68 29q28 30 28 67q0 41 -28 69q-27 27 -68 27q-40 0 -68 -27t-28 -69z" />
<glyph unicode="&#x26;" horiz-adv-x="1290" d="M49 514q0 130 63 242q64 114 169 182q-51 50 -78 115q-27 66 -27 135t28 136q27 64 76 113q48 47 112 76q66 29 136 29q79 0 150 -34q73 -35 123 -95l-131 -106q-55 65 -142 65q-38 0 -70 -14q-34 -15 -60 -39q-25 -24 -40 -58q-14 -32 -14 -73q0 -66 45 -118 q44 -51 117 -56v-168q-62 -8 -115 -38t-92 -74q-39 -43 -60 -101q-22 -60 -22 -119q0 -69 28 -134t73 -110q46 -46 109 -73t134 -27q72 0 136 29q62 28 109 75q45 45 73 109q26 59 26 127q0 25 -1 38q-2 26 -5 38q-141 -91 -221 -244l-150 76q50 98 127 179q77 82 169 138 q96 59 200 88q110 31 217 31v-168q-95 0 -188 -29q13 -37 17 -71q5 -42 5 -72q0 -103 -41 -199q-40 -94 -111 -163q-73 -71 -164 -111q-94 -41 -198 -41q-103 0 -197 41q-92 40 -163 111q-72 72 -111 163q-41 96 -41 199z" />
<glyph unicode="'" d="M49 1452q0 48 31 82q30 33 72 33q51 0 81 -33q31 -34 31 -76q0 -9 -1 -17q-1 -11 -9 -28l-109 -235l-65 30l63 144q-41 7 -68 36q-26 28 -26 64z" />
<glyph unicode="(" horiz-adv-x="735" d="M49 668q0 163 40 317q41 156 120 279q77 119 199 198q117 75 278 80v-170q-120 -6 -207 -68q-86 -61 -147 -160q-59 -95 -89 -221q-30 -125 -30 -253t30 -253t89 -222q60 -99 147 -161q89 -63 207 -69v-170q-158 1 -278 79q-119 77 -199 199t-120 277q-40 154 -40 318z " />
<glyph unicode=")" horiz-adv-x="735" d="M49 -35q119 6 207 69q87 62 147 161q61 100 90 222q29 120 29 253t-29 253q-30 123 -90 221q-61 99 -147 160q-87 62 -207 68v170q162 -5 279 -80q120 -78 198 -198q80 -123 120 -279q40 -154 40 -317q0 -164 -40 -318q-40 -155 -120 -277q-81 -123 -198 -199 q-120 -78 -279 -79v170z" />
<glyph unicode="*" horiz-adv-x="509" d="M49 1464l39 66l131 -76v150h76v-150l127 74l37 -66l-129 -73l131 -76l-39 -66l-129 74v-147h-76v149l-129 -74l-37 66l131 74z" />
<glyph unicode="+" horiz-adv-x="978" d="M49 629v170h354v354h170v-354h357v-170h-357v-357h-170v357h-354z" />
<glyph unicode="," d="M49 80q0 48 31 82q30 33 72 33q51 0 81 -33q31 -34 31 -76q0 -2 -2 -18q-1 -10 -8 -27l-80 -166l-65 29l34 76q-39 6 -66 33q-28 28 -28 67z" />
<glyph unicode="-" horiz-adv-x="688" d="M49 629v170h590v-170h-590z" />
<glyph unicode="." d="M49 84q0 44 31 77q30 32 76 32q44 0 76 -32t32 -77q0 -46 -32 -76q-33 -31 -76 -31q-45 0 -76 31t-31 76z" />
<glyph unicode="/" horiz-adv-x="778" d="M49 0l512 1542h168l-512 -1542h-168z" />
<glyph unicode="0" horiz-adv-x="1222" d="M57 760q0 140 35 283q33 135 105 251q69 110 173 180q102 68 242 68q138 0 241 -66q102 -65 174 -178q72 -114 107 -250q35 -137 35 -288q0 -147 -33 -278q-34 -135 -103 -243q-68 -106 -174 -173q-105 -66 -247 -66q-138 0 -242 65q-105 65 -173 169q-71 108 -105 243 q-35 138 -35 283zM227 760q0 -113 24 -218q24 -106 71 -189q47 -84 119 -133q73 -50 171 -50t172 50t121 133t71 189q23 101 23 218t-23 222q-24 109 -71 197q-46 87 -121 140q-74 53 -172 53t-171 -53q-74 -55 -119 -140q-47 -88 -71 -197q-24 -110 -24 -222z" />
<glyph unicode="1" horiz-adv-x="524" d="M49 1167l426 392v-1559h-170v1176l-143 -132z" />
<glyph unicode="2" horiz-adv-x="974" d="M49 0l639 807q33 43 52 98q18 53 18 109q-6 73 -34 139q-27 63 -75 111q-47 47 -110 74q-66 28 -138 34q-99 0 -182 -51l-88 143q64 40 134 59q69 19 141 19q104 0 199 -42q96 -43 166 -114q72 -73 113 -166q42 -94 42 -200q0 -83 -25 -167q-24 -82 -80 -151 q-102 -129 -212 -266q-93 -116 -210 -266h484v-170h-834z" />
<glyph unicode="3" horiz-adv-x="841" d="M49 1372v170h666l-314 -395q88 -34 158 -88q71 -55 124 -129q52 -73 81 -160t29 -180q0 -115 -48 -226q-47 -108 -129 -189q-85 -83 -189 -128q-109 -47 -226 -47h-107v170h107q86 0 161 34q77 35 135 91q56 55 92 134q34 75 34 161q0 81 -29 154q-28 70 -79 129 q-48 56 -120 93q-70 37 -149 44l-154 16q79 98 136 173q61 80 139 173h-318z" />
<glyph unicode="4" horiz-adv-x="1032" d="M49 362l592 1180h188l-507 -1012h407v273h168v-273h86v-168h-86v-362h-168v362h-680z" />
<glyph unicode="5" horiz-adv-x="856" d="M49 1014q79 368 111 528h487v-170h-350l-43 -198q116 -15 215 -58q100 -43 176 -115q75 -70 119 -174q43 -101 43 -237q0 -118 -48 -226t-129 -189q-82 -81 -188 -128q-108 -47 -225 -47h-108v170h108q85 0 160 34q77 34 134 92q59 59 93 134q35 78 35 160q0 118 -44 201 q-42 80 -118 131q-73 49 -172 70q-104 22 -205 22h-51z" />
<glyph unicode="6" horiz-adv-x="1277" d="M49 592q0 183 68 355t187 303q121 133 283 212q165 80 355 80v-170q-149 0 -280 -59q-135 -61 -234 -170q46 17 102 28q55 11 109 11q119 0 228 -47t188 -129q82 -85 127 -190q47 -109 47 -226t-47 -226q-46 -106 -127 -189q-80 -81 -188 -128q-109 -47 -228 -47t-228 47 q-108 47 -188 128q-81 83 -127 189q-47 109 -47 228zM217 596q0 -86 33 -164q33 -77 90 -136q55 -56 134 -92q75 -34 165 -34q88 0 163 34q80 36 134 90q56 56 91 133q34 75 34 163t-34 163q-35 78 -91 134t-134 91q-75 34 -163 34q-85 0 -161 -33t-135 -90 q-57 -55 -92 -132q-34 -74 -34 -161z" />
<glyph unicode="7" horiz-adv-x="880" d="M49 1372v170h782q-133 -375 -264 -756q-144 -419 -274 -786h-178l479 1372h-545z" />
<glyph unicode="8" horiz-adv-x="1277" d="M49 590q0 90 27 174t75 156q47 71 114 127q66 55 149 90q-24 32 -31 67q-8 40 -8 70q0 52 19 100q18 46 55 86q35 38 82 60t108 22q64 0 110 -23t82 -62q36 -40 54 -85q18 -46 18 -96q0 -35 -9 -71q-8 -33 -32 -68q81 -31 147 -86t115 -127q51 -74 77 -157 q28 -89 28 -177q0 -117 -47 -226q-46 -106 -127 -189q-80 -81 -188 -128q-109 -47 -228 -47t-228 47q-107 46 -188 127q-82 82 -127 187q-47 109 -47 229zM217 590q0 -90 34 -165q35 -76 91 -133q55 -55 134 -89q77 -33 163 -33q88 0 163 34q80 36 134 90q56 56 91 133 q34 75 34 163t-34 163q-35 78 -91 134t-134 91q-75 34 -163 34q-87 0 -163 -33q-77 -33 -134 -90q-56 -56 -91 -134q-34 -75 -34 -165zM543 1276q0 -40 28 -67t68 -27q42 0 69 27t27 67q0 42 -27 69t-69 27q-39 0 -68 -27q-28 -27 -28 -69z" />
<glyph unicode="9" horiz-adv-x="1277" d="M49 952q0 122 47 231q46 106 128 187q81 79 188 126q105 46 227 46q119 0 228 -47t188 -129q82 -86 127 -189q47 -109 47 -227q0 -177 -67 -351q-65 -169 -185 -304q-117 -132 -283 -214q-164 -81 -358 -81v170q148 0 280 61q133 61 232 168q-95 -37 -209 -37 q-117 0 -228 48q-107 46 -188 127q-82 82 -127 187q-47 109 -47 228zM217 952q0 -87 34 -162q36 -80 91 -135q56 -56 134 -91q75 -34 163 -34q85 0 162 33q76 33 133 90q57 56 91 133q35 77 36 160q0 86 -33 163t-90 135t-134 93q-78 35 -165 35t-163 -33q-77 -33 -134 -90 q-56 -57 -91 -133q-34 -75 -34 -164z" />
<glyph unicode=":" d="M49 84q0 44 31 77q30 32 76 32q44 0 76 -32t32 -77q0 -46 -32 -76q-33 -31 -76 -31q-45 0 -76 31t-31 76zM49 412q0 43 31 76q30 32 76 32q44 0 76 -32t32 -76q0 -45 -32 -77t-76 -32q-46 0 -76 32q-31 33 -31 77z" />
<glyph unicode=";" d="M49 80q0 48 31 82q30 33 72 33q51 0 81 -33q31 -34 31 -76q0 -2 -2 -18q-1 -10 -8 -27l-80 -166l-65 29l34 76q-39 6 -66 33q-28 28 -28 67zM49 412q0 43 31 76q30 32 76 32q44 0 76 -32t32 -76q0 -45 -32 -77t-76 -32q-46 0 -76 32q-31 33 -31 77z" />
<glyph unicode="&#x3c;" horiz-adv-x="978" d="M49 578v210l881 349v-170l-719 -285l719 -283v-170z" />
<glyph unicode="=" horiz-adv-x="978" d="M49 485v170h881v-170h-881zM49 772v170h881v-170h-881z" />
<glyph unicode="&#x3e;" horiz-adv-x="978" d="M49 229v170l719 283l-719 285v170l881 -349v-210z" />
<glyph unicode="?" horiz-adv-x="792" d="M49 84q0 45 32 77t77 32q44 0 76 -32t32 -77q0 -46 -32 -76q-33 -31 -76 -31q-44 0 -77 31q-32 30 -32 76zM74 225v305h84q86 0 161 34q77 35 133 92q54 56 90 135q33 73 33 161q0 86 -32 160q-33 77 -89 134t-133 92q-75 34 -163 34h-78v170h80q118 0 225 -48t186 -129 q80 -81 126 -187q46 -105 46 -226q0 -106 -37 -204q-36 -95 -105 -178q-65 -78 -159 -132q-92 -52 -198 -69v-144h-170z" />
<glyph unicode="@" horiz-adv-x="1703" d="M63 786q0 146 51 284q50 134 143 235q91 98 224 158q132 59 295 59q144 0 263 -49q118 -49 207 -136q87 -85 135 -204q49 -121 49 -259q0 -68 -17 -147q-16 -76 -51 -139q-35 -64 -91 -104t-136 -40q-39 0 -81 17q-38 15 -83 45q-50 -49 -111 -76q-60 -27 -119 -27 q-76 0 -136 30t-103 79q-44 50 -66 114q-22 63 -22 136t22 136q22 64 66 114t103 78t136 28q122 0 226 -88l92 53v-385q0 -29 20 -55q21 -27 56 -27q41 0 65 35q25 36 37 82q11 43 16 93q4 41 4 69q0 102 -35 184q-36 83 -101 144q-63 59 -152 92t-193 33q-125 0 -227 -44 q-100 -43 -170 -121q-70 -77 -107 -179q-36 -98 -36 -218q0 -119 37 -223q37 -102 109 -181q72 -78 172 -122q102 -45 228 -45q111 0 225 27t212 88l98 -144q-116 -73 -257 -109t-278 -36q-163 0 -295 58q-133 58 -227 160q-94 101 -145 238q-52 139 -52 289zM586 762 q0 -35 9 -68q8 -29 28 -59q17 -26 48 -43t70 -17q60 0 102 42t42 102v82q0 60 -41 104q-40 43 -103 43q-41 0 -70 -16q-31 -17 -48 -43q-20 -30 -28 -61q-9 -34 -9 -66z" />
<glyph unicode="A" horiz-adv-x="1218" d="M49 0l119 375h-90v176h143l309 985h160l479 -1536h-176l-116 375h-533l-117 -375h-178zM399 551h422l-211 676z" />
<glyph unicode="B" horiz-adv-x="815" d="M49 0v1542h127q60 0 106 -23q49 -24 84 -61t55 -85q19 -47 19 -97q0 -36 -9 -70q-9 -33 -32 -69q85 -34 155 -95t116 -132q47 -73 71 -156q25 -87 25 -168q0 -123 -45 -230q-45 -106 -125 -186q-81 -81 -187 -125q-108 -45 -233 -45h-127zM219 172q80 8 150 44 q72 37 119 92q50 58 80 129q30 72 30 153q0 80 -30 152t-81 129t-119 94q-69 37 -149 45v-838zM219 1190q30 16 41 38q12 24 12 50q0 57 -53 86v-174z" />
<glyph unicode="C" horiz-adv-x="868" d="M49 772q0 156 62 298q60 138 167 245q105 105 244 166q138 61 297 61v-170q-121 0 -232 -47q-109 -47 -192 -129q-82 -82 -130 -191t-48 -233q0 -122 48 -232t130 -192t192 -130q109 -48 232 -48v-170q-158 0 -298 61t-245 166q-103 103 -165 245t-62 300z" />
<glyph unicode="D" horiz-adv-x="942" d="M49 0v1542h84q158 0 295 -62q140 -63 242 -168q104 -107 163 -246q60 -141 60 -294q0 -155 -60 -296q-59 -139 -163 -246q-102 -105 -242 -168q-137 -62 -295 -62h-84zM217 176q109 17 201 71q93 55 160 134q67 78 106 180q39 101 39 211q0 108 -39 209q-39 102 -106 180 q-67 79 -160 134q-92 54 -201 71v-1190z" />
<glyph unicode="E" horiz-adv-x="958" d="M49 1012v170h98v360h750v-170h-580v-190h590v-170h-590v-240q0 -122 47 -231q48 -112 126 -191q80 -82 189 -130q109 -49 230 -50v-172q-157 1 -296 65q-137 63 -241 168q-105 106 -164 244q-61 142 -61 297v240h-98z" />
<glyph unicode="F" horiz-adv-x="899" d="M49 1012v170h109v360h673v-170h-505v-190h524v-170h-524v-1012h-168v1012h-109z" />
<glyph unicode="G" horiz-adv-x="942" d="M49 772q0 153 59 292t160 243t240 168q135 62 295 67v-170q-123 -5 -228 -52q-107 -48 -186 -130q-80 -83 -126 -190t-46 -228q0 -110 39 -211q39 -102 106 -180q67 -79 160 -134q92 -54 201 -71v836h-234v170h404v-1182h-86q-158 0 -293 61q-137 62 -241 167 q-103 104 -163 246q-61 143 -61 298z" />
<glyph unicode="H" horiz-adv-x="1044" d="M49 1012v170h109v360h170v-360h497v360h170v-1542h-170v1012h-497v-1012h-170v1012h-109z" />
<glyph unicode="I" horiz-adv-x="266" d="M49 0v1542h168v-1542h-168z" />
<glyph unicode="J" horiz-adv-x="692" d="M49 0v170q86 1 165 37q77 35 134 93q56 58 91 136q34 77 34 164v942h170v-942q0 -118 -47 -227q-46 -107 -127 -191q-77 -80 -188 -131q-108 -49 -232 -51z" />
<glyph unicode="K" horiz-adv-x="1032" d="M49 0v1542h168v-348l315 348h226l-264 -295l489 -1247h-180l-436 1108l-150 -166v-942h-168z" />
<glyph unicode="L" horiz-adv-x="763" d="M49 0v1542h170v-1372h496v-170h-666z" />
<glyph unicode="M" horiz-adv-x="1081" d="M49 0v1587l492 -385l491 385v-1587h-168v1243l-323 -254l-324 254v-1243h-168z" />
<glyph unicode="N" horiz-adv-x="815" d="M49 0v1542h86q125 0 244 -39q121 -40 219 -110v149h168v-1542h-168v1174q-78 80 -172 128q-95 49 -207 64v-1366h-170z" />
<glyph unicode="O" horiz-adv-x="1638" d="M33 772q0 158 64 301t172 251t250 171q145 64 300 64q154 0 299 -65q143 -64 251 -172t172 -251q65 -145 65 -299q0 -155 -64 -300q-63 -143 -171 -251q-110 -110 -251 -173q-143 -64 -301 -64q-157 0 -301 63q-140 61 -251 172q-108 108 -171 251q-63 142 -63 302z M201 772q0 -121 50 -235q49 -113 135 -198t198 -135q114 -50 235 -50q125 0 237 50q108 48 196 136q86 86 136 198t50 234t-50 236q-48 110 -136 196q-87 86 -197 134q-116 51 -236 51t-234 -51q-113 -50 -198 -134q-88 -86 -136 -196q-50 -114 -50 -236z" />
<glyph unicode="P" horiz-adv-x="815" d="M49 0v1542h127q119 0 228 -47q107 -46 188 -127q82 -82 127 -187q47 -109 47 -229q0 -116 -43 -218q-43 -104 -117 -183q-75 -81 -173 -130q-103 -52 -214 -59v-362h-170zM219 532q77 7 149 45q67 35 119 93q50 56 81 130q30 72 30 152t-29 153q-28 71 -80 129 q-49 55 -120 92q-70 36 -150 44v-838z" />
<glyph unicode="Q" horiz-adv-x="1638" d="M49 772q0 156 62 298q60 138 167 245q105 105 244 166q138 61 297 61q156 0 296 -61t246 -167t167 -246t61 -296q0 -169 -64 -313q-64 -145 -182 -252q45 -45 83 -98q40 -56 69 -111l-149 -80q-26 53 -63 101q-34 44 -77 87q-86 -51 -183 -78q-101 -28 -204 -28 q-158 0 -298 61t-245 166q-103 103 -165 245t-62 300zM217 772q0 -122 48 -232t130 -192t192 -130q109 -48 232 -48q128 0 238 49q-79 44 -169 69q-85 23 -183 23v168q141 0 270 -42q127 -41 239 -120q98 85 153 202q54 116 54 253q0 124 -48 233t-130 191q-83 83 -191 129 q-111 47 -233 47q-121 0 -232 -47q-109 -47 -192 -129q-82 -82 -130 -191t-48 -233z" />
<glyph unicode="R" horiz-adv-x="831" d="M49 0v1542h125q117 0 226 -47q105 -45 190 -127q83 -80 129 -187q47 -109 47 -229q0 -100 -33 -191t-91 -167q-58 -75 -138 -130q-79 -53 -172 -81q83 -101 198 -157t252 -56v-170q-165 0 -312 69t-253 187v-256h-168zM217 532q77 7 149 45q67 35 119 93q50 56 81 130 q30 72 30 152t-29 153q-28 71 -80 129q-49 55 -120 92q-70 36 -150 44v-838z" />
<glyph unicode="S" horiz-adv-x="690" d="M49 1171q0 77 30 144q31 69 81 118q50 48 119 79q67 30 143 30v-170q-86 0 -144 -57q-59 -57 -59 -144q0 -39 12 -76q12 -39 41 -63l222 -188q70 -62 106 -156q35 -93 41 -196q0 -102 -39 -190q-40 -90 -105 -157q-64 -65 -156 -106q-89 -39 -189 -39v170q63 0 123 26 t103 69t69 103t26 124q0 62 -21 121q-20 56 -69 102q-50 43 -117 97q-58 46 -107 100q-50 54 -79 116q-31 65 -31 143z" />
<glyph unicode="T" horiz-adv-x="872" d="M49 1372v170h774v-170h-303v-1372h-168v1372h-303z" />
<glyph unicode="U" horiz-adv-x="897" d="M49 399v1143h170v-1143q0 -45 19 -89q17 -40 49 -72q33 -34 72 -50q42 -18 90 -18q47 0 89 18q37 16 73 50q34 32 51 72q18 42 18 89v1143h168v-1143q0 -78 -31 -152q-30 -71 -85 -128q-53 -55 -127 -87q-73 -32 -156 -32q-82 0 -155 32t-127 86t-86 127t-32 154z" />
<glyph unicode="V" horiz-adv-x="1232" d="M49 1542h178l389 -1253l390 1253h178l-488 -1542h-159z" />
<glyph unicode="W" horiz-adv-x="1579" d="M49 1542h174l295 -1206l191 668h161l191 -668l293 1206h176l-387 -1542h-162l-193 672l-190 -672h-164z" />
<glyph unicode="X" horiz-adv-x="1273" d="M49 0l490 846l-404 696h195l307 -528l305 528h195l-404 -696l492 -846h-195l-393 678l-393 -678h-195z" />
<glyph unicode="Y" horiz-adv-x="950" d="M49 1542h207l219 -301l219 301h207l-342 -473v-1069h-168v1069z" />
<glyph unicode="Z" horiz-adv-x="1032" d="M49 0l666 1372h-529v170h797l-666 -1372h541v-170h-809z" />
<glyph unicode="[" horiz-adv-x="415" d="M49 -225v1767h318v-170h-148v-1427h148v-170h-318z" />
<glyph unicode="\" horiz-adv-x="778" d="M49 1542h168l512 -1542h-168z" />
<glyph unicode="]" horiz-adv-x="415" d="M49 -55h148v1427h-148v170h318v-1767h-318v170z" />
<glyph unicode="^" horiz-adv-x="1024" />
<glyph unicode="_" horiz-adv-x="1290" d="M-2 0h1313v-88h-1313v88z" />
<glyph unicode="`" horiz-adv-x="423" d="M49 1630l12 74l314 -55l-13 -74z" />
<glyph unicode="a" horiz-adv-x="1040" d="M49 362v168h98v242q0 153 61 296q60 140 164 246t240 167q135 61 293 61h86v-1542h-168v362h-506v-362h-170v362h-98zM317 530h506v836q-108 -16 -200 -71q-93 -55 -160 -134q-68 -81 -107 -180q-39 -101 -39 -209v-242z" />
<glyph unicode="b" horiz-adv-x="1003" d="M49 360v170h82v1010h234q119 0 228 -47q105 -45 187 -127t127 -187q47 -109 47 -229q0 -91 -26 -172q-27 -83 -76 -155q-48 -70 -117 -128q-65 -55 -147 -89q23 -34 32 -69q9 -36 9 -71q0 -48 -20 -97q-20 -48 -55 -85q-33 -35 -84 -60q-48 -24 -105 -24h-234v360h-82z M301 168h35q54 0 89 27q34 27 34 69q0 36 -25 67q-23 29 -69 29h-64v-192zM301 530h64q85 0 162 33q79 34 135 90q57 57 90 134q32 74 32 163q0 90 -33 163q-35 78 -91 134q-56 57 -133 91q-75 34 -162 34h-64v-842z" />
<glyph unicode="c" horiz-adv-x="1429" d="M49 774q0 156 62 298q60 138 167 245q105 105 245 166t298 61q162 0 304 -62q146 -64 255 -179l-123 -115q-86 92 -198 140t-238 48q-121 0 -232 -47q-109 -47 -192 -129q-82 -82 -130 -191t-48 -235q0 -123 48 -232q48 -110 130 -192t192 -130q109 -48 232 -48 q127 0 238 49q113 49 198 141l123 -116q-109 -115 -255 -179q-144 -63 -304 -63q-158 0 -300 62t-245 165t-165 245t-62 298z" />
<glyph unicode="d" horiz-adv-x="942" d="M49 0v1542h84q158 0 295 -62q140 -63 242 -168q104 -107 163 -246q60 -141 60 -294q0 -155 -60 -296q-59 -139 -163 -246q-102 -105 -242 -168q-137 -62 -295 -62h-84zM217 176q109 17 201 71q93 55 160 134q67 78 106 180q39 101 39 211q0 108 -39 209q-39 102 -106 180 q-67 79 -160 134q-92 54 -201 71v-1190z" />
<glyph unicode="e" horiz-adv-x="956" d="M49 365v170h98v1009h760v-168h-590v-841h590v-170h-590v-197h580v-168h-750v365h-98z" />
<glyph unicode="f" horiz-adv-x="899" d="M49 367v168h109v1009h673v-168h-505v-841h524v-168h-524v-367h-168v367h-109z" />
<glyph unicode="g" horiz-adv-x="942" d="M49 774q0 156 60 294q61 141 162 243t241 167q133 61 293 66v-168q-123 -5 -227 -53q-110 -51 -187 -131q-82 -85 -127 -190q-47 -109 -47 -228q0 -108 39 -210t106 -181q66 -78 160 -135q91 -55 201 -72v186h-234v168h404v-530h-86q-156 0 -294 63q-139 63 -241 170 t-162 247q-61 143 -61 294z" />
<glyph unicode="h" horiz-adv-x="1044" d="M49 365v170h109v1011h170v-1011h497v1011h170v-1546h-170v365h-497v-365h-170v365h-109z" />
<glyph unicode="i" horiz-adv-x="266" d="M49 0v1542h168v-1542h-168z" />
<glyph unicode="j" horiz-adv-x="282" d="M-360 -72q85 1 164 37t135 93t91 137q33 75 33 163v1188h170v-1188q0 -119 -47 -228q-45 -105 -128 -188q-82 -82 -188 -129q-111 -50 -230 -51v166z" />
<glyph unicode="k" horiz-adv-x="1032" d="M49 0v1542h168v-942l150 -166l436 1108h180l-489 -1247l264 -295h-226l-315 348v-348h-168z" />
<glyph unicode="l" horiz-adv-x="763" d="M49 0v1542h170v-1372h496v-170h-666z" />
<glyph unicode="m" horiz-adv-x="1288" d="M49 0l236 1602l358 -379l361 379l235 -1602h-172l-180 1235l-244 -258l-242 258l-182 -1235h-170z" />
<glyph unicode="n" horiz-adv-x="798" d="M49 0v1606l533 -318v254h168v-1542h-168v1092l-365 217v-1309h-168z" />
<glyph unicode="o" horiz-adv-x="628" d="M49 1280q0 51 22 101q21 48 57 84q38 38 84 58q48 21 101 21q54 0 102 -21q45 -20 85 -58q37 -35 58 -84q22 -50 22 -101t-22 -101q-21 -49 -58 -84q-40 -38 -85 -58q-48 -21 -102 -21q-53 0 -101 21q-46 20 -84 58q-36 36 -57 84q-22 50 -22 101zM217 1280q0 -39 29 -68 q28 -28 67 -28q42 0 69 28q28 30 28 68q0 41 -28 69q-27 27 -69 27q-39 0 -67 -27q-29 -27 -29 -69z" />
<glyph unicode="p" horiz-adv-x="569" d="M49 0v1544h205q58 0 106 -22q49 -22 85 -60q37 -39 56 -85q19 -47 19 -101q0 -52 -19 -99t-59 -87q-41 -38 -85 -57q-48 -21 -103 -21h-37v-1012h-168zM217 1182h37q45 0 72 30q26 29 26 70q0 32 -11 49q-13 19 -30 29t-40 13q-21 3 -42 3h-12v-194z" />
<glyph unicode="q" horiz-adv-x="1277" d="M49 954q0 122 47 231q46 106 128 187q81 79 188 126q105 46 227 46q119 0 228 -47q107 -46 188 -127q82 -82 127 -187q47 -109 47 -229q0 -109 -41 -211q-40 -100 -113 -180q-72 -80 -167 -131q-94 -51 -206 -63l-163 -201h428v-168h-793l322 383q-94 24 -179 79 q-80 53 -141 130q-57 73 -93 168q-34 90 -34 194zM219 952q0 -74 28 -152q26 -72 82 -133q54 -58 131 -96q73 -36 175 -36q82 0 156 29t135 84q57 52 96 132q37 77 37 174q0 88 -34 163q-36 80 -90 134q-57 56 -133 91q-75 34 -163 34q-99 0 -176 -37q-80 -39 -132 -96 q-56 -62 -83 -135q-29 -78 -29 -156z" />
<glyph unicode="r" horiz-adv-x="897" d="M49 0v1544h207q55 0 103 -21q46 -20 84 -58t58 -84q21 -48 21 -103q0 -83 -46 -150q-47 -68 -122 -96q37 -174 96 -347q55 -161 118 -273q66 -117 135 -180q70 -64 145 -64v-168q-104 0 -196 61q-93 62 -173 176q-79 113 -145 274q-65 157 -115 357v-868h-170zM219 1184 q23 0 37 -2q44 0 70 29t26 67q0 44 -26 70q-19 19 -40 24q-17 4 -42 4h-25v-192z" />
<glyph unicode="s" horiz-adv-x="1087" d="M49 324l158 61q38 -98 126 -158q86 -59 193 -59q67 0 132 28q63 27 110 74q49 49 75 110q27 63 27 132q0 62 -20 103q-23 47 -56 79q-38 37 -85 65q-47 29 -109 58q-26 14 -70 30q-39 14 -65 34q-52 22 -104 50q-51 28 -90 64q-40 37 -64 88q-25 53 -25 119q0 67 28 132 q27 63 74 110q48 48 108 74q61 26 134 26q59 0 112 -19q52 -19 99 -55t77 -82q32 -49 44 -106l-164 -39q-15 59 -61 96t-107 37q-72 0 -123 -51t-51 -123q0 -33 19 -60q17 -24 47 -46q25 -18 66 -38q25 -12 77 -36l96 -45q88 -41 152 -82q74 -47 120 -98q50 -56 80 -125 q29 -67 29 -160q0 -106 -41 -200q-40 -92 -110 -162q-69 -69 -163 -110q-92 -40 -198 -40q-78 0 -151 24q-77 25 -136 66q-63 43 -112 103q-50 61 -78 131z" />
<glyph unicode="t" horiz-adv-x="872" d="M49 1372v170h774v-170h-303v-1372h-168v1372h-303z" />
<glyph unicode="u" horiz-adv-x="942" d="M49 770v776h168v-776q0 -108 39 -209q39 -102 106 -180q67 -79 160 -134q92 -54 201 -71v1370h170v-1546h-86q-158 0 -294 62q-140 64 -241 168q-102 105 -162 246q-61 143 -61 294z" />
<glyph unicode="v" horiz-adv-x="942" d="M49 0v1546h170v-1366q109 17 201 71q93 55 160 134q67 78 106 180q39 100 39 209v772h168v-772q0 -155 -59 -294q-60 -142 -163 -246q-103 -105 -242 -168q-141 -65 -294 -66h-86z" />
<glyph unicode="w" horiz-adv-x="1204" d="M49 0v1546h168v-1366q69 16 121 51q53 36 95 87q40 49 63 113q22 62 22 130v985h168v-985q0 -66 23 -130q23 -65 62 -114q42 -52 95 -87t121 -50v1366h168v-1546h-86q-143 0 -267 72t-200 194q-76 -122 -200 -194t-267 -72h-86z" />
<glyph unicode="x" horiz-adv-x="1267" d="M49 1542h195l391 -672l389 672h195l-488 -840l408 -702h-195l-309 535l-311 -535h-195l408 702z" />
<glyph unicode="y" horiz-adv-x="1073" d="M49 1542h178l310 -846l307 846h180l-403 -1106v-436h-168v436z" />
<glyph unicode="z" horiz-adv-x="1032" d="M49 0l666 1372h-529v170h797l-666 -1372h541v-170h-809z" />
<glyph unicode="{" horiz-adv-x="559" d="M49 586v151q27 0 54 11t45 36q19 26 31 74q11 43 11 121v168q0 79 22 156q21 75 61 129q41 56 100 87t137 31v-192q-87 0 -118 -51q-32 -52 -32 -144q0 -23 1 -61t1 -189q0 -48 -24 -114q-22 -60 -70 -137q48 -73 70 -126q24 -57 24 -104q0 -154 -1 -199t-1 -71 q0 -94 36 -143q36 -50 114 -50v-194q-78 0 -137 31t-100 86q-39 53 -61 128q-22 77 -22 158v168q0 76 -13 121q-14 48 -33 73q-18 24 -45 35t-50 11z" />
<glyph unicode="|" horiz-adv-x="1024" />
<glyph unicode="}" horiz-adv-x="559" d="M49 -33q87 0 118 51q32 52 32 144q0 23 -1 61t-1 189q0 48 24 114q23 62 70 138q-48 73 -70 126q-24 57 -24 103q0 154 1 199t1 71q0 93 -36 143t-114 50v194q77 0 136 -31q60 -32 101 -86q39 -53 61 -128q22 -77 22 -158v-168q0 -76 13 -121q14 -48 33 -73 q18 -24 45 -35t50 -11v-151q-30 0 -54 -10q-26 -11 -45 -37t-31 -74q-11 -43 -11 -121v-168q0 -81 -22 -156q-22 -74 -61 -128q-41 -57 -101 -88q-59 -31 -136 -31v192z" />
<glyph unicode="~" horiz-adv-x="1024" />
<glyph unicode="&#xa1;" d="M49 1059q0 45 32 77q31 31 77 31q45 0 75 -31q31 -33 31 -77t-31 -77q-30 -32 -75 -32t-77 32t-32 77zM72 -395v1313h170v-1313h-170z" />
<glyph unicode="&#xa2;" horiz-adv-x="643" d="M49 772q0 151 75 275q75 125 198 194v301h167v-237q54 10 105 10v-168q-78 0 -145 -30q-68 -30 -119 -81t-81 -120t-30 -144q0 -77 30 -146q30 -68 80 -120q50 -51 118 -81q69 -30 147 -30v-168q-45 0 -105 11v-238h-167v301q-123 72 -198 197q-75 124 -75 274z" />
<glyph unicode="&#xa3;" horiz-adv-x="815" d="M49 362v168h129v76h-129v170h129v176q0 120 47 228q46 105 127 186q80 81 187 127q109 48 227 49v-170q-86 0 -163 -33t-134 -90t-90 -134t-33 -163v-176h213v-170h-213v-76h213v-168h-213v-192h420v-170h-588v362h-129z" />
<glyph unicode="&#xa4;" horiz-adv-x="1105" d="M49 565l64 168h45q0 14 -1 20t-1 19q0 12 1 19t1 18h-109l64 168h65q15 101 63 201q48 101 124 181q77 82 173 132q98 51 207 51q86 0 167 -32q76 -30 145 -85l-64 -170q-53 56 -111 85q-64 32 -137 32q-79 0 -144 -36t-114 -93q-46 -53 -83 -127q-33 -66 -52 -139h533 l-64 -168h-495v-76h467l-66 -168h-375q19 -70 52 -138q36 -74 83 -128q49 -57 114 -93t144 -36q51 0 92 14q45 15 83 39v-188q-43 -18 -84 -26q-44 -9 -91 -9q-218 0 -362 162q-76 84 -133 191q-55 105 -72 212h-129z" />
<glyph unicode="&#xa5;" horiz-adv-x="1075" d="M49 1542h178l310 -850l309 850h180l-278 -766h106v-170h-168l-29 -76h197v-168h-233v-362h-168v362h-234v168h199l-29 76h-170v170h109z" />
<glyph unicode="&#xa6;" horiz-adv-x="1024" />
<glyph unicode="&#xa7;" horiz-adv-x="4444" d="M55 0v1536h262v-1536h-262zM561 565q23 -95 71 -185q49 -92 110 -160q64 -72 147 -129q81 -56 174 -91h575q93 35 174 91q82 57 147 129q63 71 111 160q46 86 70 185h-250q-28 -78 -84 -151q-54 -71 -124 -120q-75 -53 -155 -78q-89 -28 -177 -28q-89 0 -176 28 q-81 26 -155 78q-70 49 -124 120q-56 73 -84 151h-250zM561 604v314h195v-62h-115v-68h102v-65h-104v-119h-78zM561 958h252q30 82 83 152q55 72 123 120q74 52 155 78q84 27 176 27t177 -27q80 -25 155 -78q68 -48 123 -120q53 -70 83 -152h252q-23 98 -75 194 q-49 90 -120 166q-69 73 -158 130q-86 55 -185 88h-502q-101 -34 -186 -88q-87 -55 -157 -130q-73 -78 -121 -166q-52 -96 -75 -194zM1174 745q0 -58 25 -90q24 -32 56 -49q34 -19 84 -24q52 5 88 24q37 18 63 51q28 36 28 101t-26 100q-25 34 -56 51q-37 21 -80 25 q-27 0 -61 -8q-30 -7 -58 -29t-45 -57q-18 -37 -18 -95zM1253 752q0 28 10 51q10 22 23 33q15 12 32 16q16 4 32 4q22 -1 43 -12q14 -9 30 -31q15 -21 15 -55q0 -36 -16 -57q-14 -18 -33 -29q-25 -12 -48 -13q-24 5 -45 15q-17 11 -29 27q-14 19 -14 51zM2060 604v314h90 l146 -209v209h78v-314h-72l-166 213v-213h-76zM2306 565q50 -197 183 -345q132 -147 321 -220h575q187 73 320 220q132 147 182 345h-252q-29 -80 -83 -151q-55 -72 -123 -120q-75 -53 -155 -78q-89 -28 -177 -28q-89 0 -178 28q-80 25 -155 78q-68 48 -123 120 q-54 71 -83 151h-252zM2306 958h252q30 82 83 152q55 72 123 120q75 53 155 78q85 27 178 27q91 0 177 -27q80 -25 155 -78q68 -48 123 -120q53 -70 83 -152h252q-23 98 -75 194q-49 90 -120 166q-69 73 -158 130q-85 54 -188 88h-499q-103 -34 -188 -88q-87 -55 -157 -130 q-73 -78 -121 -166q-52 -96 -75 -194zM2984 842v76h235v-78h-65v-236h-105v238h-65zM3656 827q0 27 12 45q12 17 32 30q18 11 44 16q21 4 47 4q47 0 80 -13l-6 -63q-27 14 -68 14q-19 0 -36 -4q-19 -4 -19 -25q0 -18 22 -25q7 -2 24 -7.5t26 -8.5q30 -10 51 -27 q22 -18 22 -61q0 -58 -41 -79q-40 -21 -94 -21q-15 0 -47 2q-21 1 -47 10l8 68q19 -8 38 -14q21 -6 48 -6q21 0 36 6t15 24q0 22 -23 29q-9 3 -28 9t-24 8q-26 9 -50 28q-22 18 -22 61zM4137 0v1536h250v-1536h-250z" />
<glyph unicode="&#xa8;" horiz-adv-x="403" d="M49 1638q0 26 20 46t46 20q29 0 47 -20t18 -46t-18 -47q-17 -20 -47 -20q-27 0 -46 20q-20 22 -20 47zM221 1638q0 26 21 46q22 20 47 20q26 0 46 -20q19 -19 19 -46t-19 -47t-46 -20t-47 20q-21 21 -21 47z" />
<glyph unicode="&#xa9;" horiz-adv-x="1693" d="M49 799q0 162 65 309q64 146 173 254q109 109 254 172q146 63 307 63q162 0 306 -63t254 -173t173 -255q64 -148 64 -307q0 -162 -64 -308q-63 -143 -172 -254q-110 -111 -253 -174q-144 -63 -308 -63t-309 63q-143 62 -254 173q-110 110 -172 253q-64 148 -64 310z M127 799q0 -149 57 -279t156 -228q100 -99 229 -155q131 -57 279 -57t278 57q131 57 230 156q98 98 155 228q58 133 58 278t-58 278t-155 230q-95 95 -230 154q-130 57 -278 57t-279 -57q-133 -58 -229 -154q-99 -99 -156 -230t-57 -278zM326 803q0 133 53 256 q52 121 143 210q90 89 210 141q119 52 253 52v-145q-103 0 -199 -41q-90 -39 -164 -111q-72 -71 -112 -162q-41 -94 -41 -200q0 -103 41 -199q40 -94 112 -164t163 -110q94 -41 200 -41v-146q-134 0 -255 53q-120 52 -210 141q-89 88 -142 210q-52 120 -52 256z" />
<glyph unicode="&#xaa;" horiz-adv-x="499" d="M49 1047v92h41v84q0 61 25 122q24 59 67 102q44 44 101 71q55 26 123 26h45v-643h-91v146h-178v-146h-92v146h-41zM182 1139h178v307q-75 -16 -127 -80q-51 -63 -51 -143v-84z" />
<glyph unicode="&#xab;" horiz-adv-x="661" d="M49 840l318 317v-194l-123 -123l123 -123v-195zM295 840l317 317v-194l-123 -123l123 -123v-195z" />
<glyph unicode="&#xac;" horiz-adv-x="978" d="M49 629v170h881v-342h-170v172h-711z" />
<glyph unicode="&#xad;" horiz-adv-x="688" d="M49 629v170h590v-170h-590z" />
<glyph unicode="&#xae;" horiz-adv-x="755" d="M49 1219q0 68 27 128q28 62 70 104q43 43 105 71q58 26 128 26q69 0 127 -26q59 -27 103 -72q45 -47 71 -104q27 -60 27 -127t-26 -128t-71 -106q-46 -46 -104 -72t-127 -26q-70 0 -128 26q-62 28 -106 72q-43 43 -70 106q-26 61 -26 128zM121 1219q0 -57 20 -101 q21 -47 56 -82q33 -33 82 -55q44 -20 100 -20q55 0 99 20q47 21 81 55q33 33 55 82q21 46 21 101q0 53 -21 99q-21 47 -55 81q-33 33 -82 55q-46 21 -98 21q-53 0 -100 -21q-49 -22 -82 -55q-35 -35 -56 -81q-20 -44 -20 -99zM279 1020v397h47q64 0 110 -46q47 -47 47 -109 q0 -48 -23 -84q-24 -38 -63 -56q14 -9 40 -17q22 -7 50 -7v-78h-18q-65 0 -115 37v-37h-75zM354 1186q52 21 52 76q0 52 -52 73v-149z" />
<glyph unicode="&#xaf;" horiz-adv-x="565" d="M49 1473v135h467v-135h-467z" />
<glyph unicode="&#xb0;" horiz-adv-x="628" d="M49 1280q0 51 22 101q21 48 57 84q38 38 84 58q48 21 101 21q54 0 102 -21q45 -20 85 -58q37 -35 58 -84q22 -50 22 -101t-22 -101q-21 -49 -58 -84q-40 -38 -85 -58q-48 -21 -102 -21q-53 0 -101 21q-46 20 -84 58q-36 36 -57 84q-22 50 -22 101zM217 1280q0 -39 29 -68 q28 -28 67 -28q42 0 69 28q28 30 28 68q0 41 -28 69q-27 27 -69 27q-39 0 -67 -27q-29 -27 -29 -69z" />
<glyph unicode="&#xb1;" horiz-adv-x="978" d="M49 0v170h881v-170h-881zM49 629v170h354v354h170v-354h357v-170h-357v-357h-170v357h-354z" />
<glyph unicode="&#xb2;" horiz-adv-x="587" d="M49 764l334 422q12 18 20 40q9 25 9 44q0 65 -44 107q-43 42 -104 42q-42 0 -92 -37l-68 111q91 53 162 53q58 0 106 -22q50 -22 87 -60q37 -37 58 -86q22 -52 22 -104q0 -44 -14 -89t-42 -79q-35 -46 -86 -106q-37 -44 -88 -109h209v-127h-469z" />
<glyph unicode="&#xb3;" horiz-adv-x="501" d="M49 1245l127 170h-125v127h387l-159 -203q82 -39 127 -110q47 -74 47 -164q0 -59 -25 -118q-23 -55 -67 -97q-45 -44 -97 -66q-56 -24 -117 -24h-73v127h73q40 0 69 14q32 15 56 39t39 56t15 69q0 69 -45 119q-45 49 -113 57z" />
<glyph unicode="&#xb4;" horiz-adv-x="423" d="M49 1649l313 55l13 -74l-314 -55z" />
<glyph unicode="&#xb5;" horiz-adv-x="897" d="M49 -160v1411h170v-852q0 -45 19 -89q17 -40 49 -72q33 -34 72 -50q42 -18 90 -18q47 0 89 18q37 16 73 50q34 32 51 72q18 42 18 89v852h168v-852q0 -78 -31 -152q-30 -71 -85 -128q-53 -55 -127 -87q-73 -32 -156 -32q-127 0 -230 74v-234h-170z" />
<glyph unicode="&#xb6;" horiz-adv-x="1034" d="M49 954q0 117 45 222t124 184q80 80 182 126t221 46h364v-1741h-166v1573h-65v-1573h-166v582q-112 7 -211 57t-171 129q-74 82 -115 181q-42 102 -42 214zM215 954q0 -78 29 -151q27 -69 79 -127q49 -55 118 -91q70 -37 147 -44v823q-78 -7 -148 -43q-68 -35 -117 -90 q-51 -58 -79 -126q-29 -72 -29 -151z" />
<glyph unicode="&#xb7;" d="M49 739q0 44 31 77q30 32 76 32q44 0 76 -32t32 -77q0 -44 -32 -76t-76 -32q-46 0 -76 32q-31 33 -31 76z" />
<glyph unicode="&#xb8;" horiz-adv-x="329" d="M49 -315l45 69l17 -4q10 -2 16 -2q23 0 44 19q19 18 19 45q0 32 -30 55l-62 37l109 190l74 -41l-70 -123q31 -22 47 -52q16 -31 16 -68q0 -65 -44 -106q-43 -40 -99 -40q-47 0 -82 21z" />
<glyph unicode="&#xb9;" horiz-adv-x="358" d="M49 1337l260 238v-819h-127v530l-47 -41z" />
<glyph unicode="&#xba;" horiz-adv-x="739" d="M49 1231q0 64 26 124q25 57 69 101q43 43 103 69q57 25 124 25q65 0 122 -25q59 -25 102 -69q46 -46 70 -101q25 -57 25 -124t-25 -124q-25 -59 -69 -102q-46 -46 -101 -70q-60 -26 -124 -26t-124 26q-59 26 -103 70q-44 43 -69 102q-26 60 -26 124zM141 1231 q0 -45 19 -89q18 -42 49 -73t73 -49q44 -19 89 -19t88 19q40 18 71 49q33 33 50 73q18 42 18 89t-18 88q-18 40 -50 72q-31 31 -71 49q-41 18 -88 18t-89 -18t-73 -49t-49 -72q-19 -43 -19 -88z" />
<glyph unicode="&#xbb;" horiz-adv-x="661" d="M49 522v195l123 123l-123 123v194l318 -317zM295 522v195l123 123l-123 123v194l317 -317z" />
<glyph unicode="&#xbc;" horiz-adv-x="1325" d="M49 1255l316 291v-1065h-144v744l-78 -70zM199 0l798 1526h160l-799 -1526h-159zM627 236l401 798h156l-330 -657h225v176h140v-176h57v-141h-57v-236h-140v236h-452z" />
<glyph unicode="&#xbd;" horiz-adv-x="1521" d="M49 1255l316 291v-1065h-144v744l-78 -70zM199 0l798 1526h158l-797 -1526h-159zM856 0l434 549q43 55 43 125q0 50 -18 90q-18 41 -49 69t-70 43t-80 15q-28 0 -61 -9q-35 -9 -64 -30l-71 121q46 29 99 45q51 16 99 16q74 0 136 -29q66 -31 113 -79q49 -50 77 -114 q29 -66 29 -134q0 -54 -19 -113q-18 -54 -53 -102l-256 -320h299v-143h-588z" />
<glyph unicode="&#xbe;" horiz-adv-x="1347" d="M49 1382v144h481l-213 -269q112 -47 179 -145t67 -221q0 -80 -32 -153t-87 -128q-56 -56 -127 -87t-151 -31h-86v143h86q54 0 98 20q46 21 83 56q34 33 56 81q21 46 21 99q0 48 -18 91q-17 40 -51 78q-30 33 -74 57q-43 24 -91 30q-12 0 -68 2t-63 2q33 39 55 69 q24 32 54 70q28 35 35 46q7 10 37 46h-191zM223 0l797 1526h160l-799 -1526h-158zM649 236l402 798h155l-327 -657h223v176h139v-176h57v-141h-57v-236h-139v236h-453z" />
<glyph unicode="&#xbf;" horiz-adv-x="792" d="M49 195q0 106 38 206q36 96 106 178q67 79 158 131q89 51 198 68v144h170v-306h-84q-89 0 -162 -33q-76 -34 -133 -93q-58 -59 -90 -134q-33 -76 -33 -161q0 -89 33 -165t90 -133t133 -90q74 -32 162 -32h78v-170q-28 2 -40 2h-40q-117 0 -225 47q-107 47 -187 128 t-126 187q-46 105 -46 226zM526 1063q0 45 32 77q31 31 77 31t77 -31t31 -77t-31 -77q-32 -32 -77 -32t-77 32t-32 77z" />
<glyph unicode="&#xc0;" horiz-adv-x="1218" d="M49 0l119 375h-90v176h143l309 985h160l479 -1536h-176l-116 375h-533l-117 -375h-178zM399 551h422l-211 676zM446 1628l13 74l313 -55l-12 -74z" />
<glyph unicode="&#xc1;" horiz-adv-x="1218" d="M49 0l119 375h-90v176h143l309 985h160l479 -1536h-176l-116 375h-533l-117 -375h-178zM399 551h422l-211 676zM446 1647l314 55l12 -74l-313 -55z" />
<glyph unicode="&#xc2;" horiz-adv-x="1218" d="M49 0l119 375h-90v176h143l309 985h160l479 -1536h-176l-116 375h-533l-117 -375h-178zM397 1636l213 78l213 -78l-24 -69l-189 67l-186 -67zM399 551h422l-211 676z" />
<glyph unicode="&#xc3;" horiz-adv-x="1218" d="M49 0l119 375h-90v176h143l309 985h160l479 -1536h-176l-116 375h-533l-117 -375h-178zM395 1563q7 48 29 76q23 29 43 40q26 14 42 15q5 0 11 0.5t9.5 1t5.5 0.5q17 0 36 -8q15 -6 39 -20q14 -8 40 -20q23 -11 40 -12q46 0 58 64h77q-1 -13 -8 -40q-6 -25 -19 -45 q-15 -23 -39 -37q-25 -15 -65 -15q-23 0 -47 9q-32 12 -46 19q-25 12 -37 21q-14 10 -17 10h-12q-19 0 -35 -11q-20 -13 -27 -48h-78zM399 551h422l-211 676z" />
<glyph unicode="&#xc4;" horiz-adv-x="1218" d="M49 0l119 375h-90v176h143l309 985h160l479 -1536h-176l-116 375h-533l-117 -375h-178zM399 551h422l-211 676zM457 1636q0 27 19 46q20 20 46 20q29 0 47 -20q19 -21 19 -46t-19 -47q-17 -20 -47 -20q-27 0 -46 20t-19 47zM629 1636q0 27 20 46q22 20 47 20q26 0 46 -20 t20 -46q0 -25 -20 -47q-19 -20 -46 -20t-47 20t-20 47z" />
<glyph unicode="&#xc5;" horiz-adv-x="1218" d="M49 0l119 375h-90v176h143l309 985h160l479 -1536h-176l-116 375h-533l-117 -375h-178zM399 551h422l-211 676zM508 1602q0 39 28 70q27 30 74 30q48 0 75 -29q28 -30 28 -71q0 -44 -28 -74q-27 -29 -75 -29q-32 0 -52 12q-18 11 -31 29q-10 14 -15 34q-4 16 -4 28z M567 1602q0 -20 14 -31t29 -12q21 0 31 13t10 30q0 18 -12 30q-13 13 -35 13q-10 -1 -24 -15q-13 -13 -13 -28z" />
<glyph unicode="&#xc6;" horiz-adv-x="1513" d="M49 1012v170h203q107 162 271 261q165 99 370 99h559v-170h-580v-190h590v-170h-590v-240q0 -121 47 -232t127 -191q82 -82 188 -129q109 -49 230 -50l-4 -170q-156 4 -294 66q-140 62 -240 164q-104 105 -163 243q-61 142 -61 299v240h-350q-49 -110 -49 -240v-772h-170 v772q0 66 10 123q10 56 29 117h-123zM461 1182h241v159q-131 -47 -225 -145q-6 -6 -8 -6z" />
<glyph unicode="&#xc7;" horiz-adv-x="868" d="M49 772q0 156 62 298q60 138 167 245q105 105 244 166q138 61 297 61v-170q-121 0 -232 -47q-109 -47 -192 -129q-82 -82 -130 -191t-48 -233q0 -122 48 -232t130 -192t192 -130q109 -48 232 -48v-170q-158 0 -298 61t-245 166q-103 103 -165 245t-62 300zM356 -264 l45 69l17 -4q10 -2 16 -2q23 0 44 19q20 18 20 45q0 32 -31 55l-61 37l108 190l74 -41l-70 -122q30 -21 47 -53t17 -68q0 -65 -44 -106q-43 -40 -100 -40q-48 0 -82 21z" />
<glyph unicode="&#xc8;" horiz-adv-x="958" d="M49 1012v170h98v360h750v-170h-580v-190h590v-170h-590v-240q0 -122 47 -231q48 -112 126 -191q80 -82 189 -130q109 -49 230 -50v-172q-157 1 -296 65q-137 63 -241 168q-105 106 -164 244q-61 142 -61 297v240h-98zM315 1628l13 74l313 -55l-12 -74z" />
<glyph unicode="&#xc9;" horiz-adv-x="958" d="M49 1012v170h98v360h750v-170h-580v-190h590v-170h-590v-240q0 -122 47 -231q48 -112 126 -191q80 -82 189 -130q109 -49 230 -50v-172q-157 1 -296 65q-137 63 -241 168q-105 106 -164 244q-61 142 -61 297v240h-98zM315 1647l314 55l12 -74l-313 -55z" />
<glyph unicode="&#xca;" horiz-adv-x="958" d="M49 1012v170h98v360h750v-170h-580v-190h590v-170h-590v-240q0 -122 47 -231q48 -112 126 -191q80 -82 189 -130q109 -49 230 -50v-172q-157 1 -296 65q-137 63 -241 168q-105 106 -164 244q-61 142 -61 297v240h-98zM266 1636l213 78l213 -78l-24 -69l-189 67l-186 -67z " />
<glyph unicode="&#xcb;" horiz-adv-x="958" d="M49 1012v170h98v360h750v-170h-580v-190h590v-170h-590v-240q0 -122 47 -231q48 -112 126 -191q80 -82 189 -130q109 -49 230 -50v-172q-157 1 -296 65q-137 63 -241 168q-105 106 -164 244q-61 142 -61 297v240h-98zM326 1636q0 27 19 46q20 20 46 20q29 0 47 -20 q19 -21 19 -46t-19 -47q-17 -20 -47 -20q-27 0 -46 20t-19 47zM498 1636q0 27 20 46q22 20 47 20q26 0 46 -20t20 -46q0 -25 -20 -47q-19 -20 -46 -20t-47 20t-20 47z" />
<glyph unicode="&#xcc;" horiz-adv-x="266" d="M-33 1630l13 74l313 -55l-12 -74zM49 0v1542h168v-1542h-168z" />
<glyph unicode="&#xcd;" horiz-adv-x="266" d="M-29 1649l314 55l12 -74l-313 -55zM49 0v1542h168v-1542h-168z" />
<glyph unicode="&#xce;" horiz-adv-x="266" d="M-80 1638l213 78l213 -78l-24 -69l-189 67l-186 -67zM49 0v1542h168v-1542h-168z" />
<glyph unicode="&#xcf;" horiz-adv-x="266" d="M-16 1638q0 27 19 46q20 20 46 20q29 0 47 -20q19 -21 19 -46t-19 -47q-17 -20 -47 -20q-27 0 -46 20t-19 47zM49 0v1542h168v-1542h-168zM156 1638q0 27 20 46q22 20 47 20q26 0 46 -20t20 -46q0 -25 -20 -47q-19 -20 -46 -20t-47 20t-20 47z" />
<glyph unicode="&#xd0;" horiz-adv-x="1126" d="M49 362v168h184v1012h86q159 0 293 -62q138 -64 241 -168q104 -106 164 -245t60 -295q0 -155 -60 -296q-59 -139 -163 -246q-101 -104 -241 -168q-136 -62 -294 -62h-86v362h-184zM401 176q109 17 201 71q93 55 160 134q67 78 106 180q39 101 39 211q0 108 -39 209 q-39 102 -106 180q-67 79 -160 134q-92 54 -201 71v-836h189v-168h-189v-186z" />
<glyph unicode="&#xd1;" horiz-adv-x="815" d="M49 0v1542h86q125 0 244 -39q121 -40 219 -110v149h168v-1542h-168v1174q-78 80 -172 128q-95 49 -207 64v-1366h-170zM195 1563q8 50 28 76q23 29 43 40q26 14 42 15l26 2q18 0 37 -8q15 -6 39 -20q14 -8 40 -20q24 -11 39 -12q46 0 58 64h78q-1 -6 -9 -40 q-6 -25 -19 -45q-15 -23 -39 -37q-26 -15 -64 -15q-24 0 -48 9q-32 12 -46 19q-21 11 -36 21q-14 10 -18 10h-12q-18 0 -35 -11q-20 -13 -27 -48h-77z" />
<glyph unicode="&#xd2;" horiz-adv-x="1638" d="M33 772q0 158 64 301t172 251t250 171q145 64 300 64q154 0 299 -65q143 -64 251 -172t172 -251q65 -145 65 -299q0 -155 -64 -300q-63 -143 -171 -251q-110 -110 -251 -173q-143 -64 -301 -64q-157 0 -301 63q-140 61 -251 172q-108 108 -171 251q-63 142 -63 302z M201 772q0 -121 50 -235q49 -113 135 -198t198 -135q114 -50 235 -50q125 0 237 50q108 48 196 136q86 86 136 198t50 234t-50 236q-48 110 -136 196q-87 86 -197 134q-116 51 -236 51t-234 -51q-113 -50 -198 -134q-88 -86 -136 -196q-50 -114 -50 -236zM651 1628l13 74 l313 -55l-12 -74z" />
<glyph unicode="&#xd3;" horiz-adv-x="1638" d="M33 772q0 158 64 301t172 251t250 171q145 64 300 64q154 0 299 -65q143 -64 251 -172t172 -251q65 -145 65 -299q0 -155 -64 -300q-63 -143 -171 -251q-110 -110 -251 -173q-143 -64 -301 -64q-157 0 -301 63q-140 61 -251 172q-108 108 -171 251q-63 142 -63 302z M201 772q0 -121 50 -235q49 -113 135 -198t198 -135q114 -50 235 -50q125 0 237 50q108 48 196 136q86 86 136 198t50 234t-50 236q-48 110 -136 196q-87 86 -197 134q-116 51 -236 51t-234 -51q-113 -50 -198 -134q-88 -86 -136 -196q-50 -114 -50 -236zM651 1647l314 55 l12 -74l-313 -55z" />
<glyph unicode="&#xd4;" horiz-adv-x="1638" d="M33 772q0 158 64 301t172 251t250 171q145 64 300 64q154 0 299 -65q143 -64 251 -172t172 -251q65 -145 65 -299q0 -155 -64 -300q-63 -143 -171 -251q-110 -110 -251 -173q-143 -64 -301 -64q-157 0 -301 63q-140 61 -251 172q-108 108 -171 251q-63 142 -63 302z M201 772q0 -121 50 -235q49 -113 135 -198t198 -135q114 -50 235 -50q125 0 237 50q108 48 196 136q86 86 136 198t50 234t-50 236q-48 110 -136 196q-87 86 -197 134q-116 51 -236 51t-234 -51q-113 -50 -198 -134q-88 -86 -136 -196q-50 -114 -50 -236zM602 1636l213 78 l213 -78l-24 -69l-189 67l-186 -67z" />
<glyph unicode="&#xd5;" horiz-adv-x="1638" d="M33 772q0 158 64 301t172 251t250 171q145 64 300 64q154 0 299 -65q143 -64 251 -172t172 -251q65 -145 65 -299q0 -155 -64 -300q-63 -143 -171 -251q-110 -110 -251 -173q-143 -64 -301 -64q-157 0 -301 63q-140 61 -251 172q-108 108 -171 251q-63 142 -63 302z M201 772q0 -121 50 -235q49 -113 135 -198t198 -135q114 -50 235 -50q125 0 237 50q108 48 196 136q86 86 136 198t50 234t-50 236q-48 110 -136 196q-87 86 -197 134q-116 51 -236 51t-234 -51q-113 -50 -198 -134q-88 -86 -136 -196q-50 -114 -50 -236zM600 1563 q7 48 29 76q23 29 43 40q26 14 42 15q5 0 11 0.5t9 1t5 0.5q18 0 37 -8q15 -6 39 -20q14 -8 40 -20q23 -11 40 -12q45 0 57 64h78q-1 -13 -8 -40q-6 -23 -20 -45q-15 -24 -38 -37q-25 -15 -65 -15q-23 0 -47 9q-32 12 -46 19q-24 12 -37 21q-14 10 -17 10h-13q-17 0 -34 -11 q-20 -13 -27 -48h-78z" />
<glyph unicode="&#xd6;" horiz-adv-x="1638" d="M33 772q0 158 64 301t172 251t250 171q145 64 300 64q154 0 299 -65q143 -64 251 -172t172 -251q65 -145 65 -299q0 -155 -64 -300q-63 -143 -171 -251q-110 -110 -251 -173q-143 -64 -301 -64q-157 0 -301 63q-140 61 -251 172q-108 108 -171 251q-63 142 -63 302z M201 772q0 -121 50 -235q49 -113 135 -198t198 -135q114 -50 235 -50q125 0 237 50q108 48 196 136q86 86 136 198t50 234t-50 236q-48 110 -136 196q-87 86 -197 134q-116 51 -236 51t-234 -51q-113 -50 -198 -134q-88 -86 -136 -196q-50 -114 -50 -236zM662 1636 q0 27 19 46q20 20 46 20q29 0 47 -20q19 -21 19 -46t-19 -47q-17 -20 -47 -20q-27 0 -46 20t-19 47zM834 1636q0 27 20 46q22 20 47 20q26 0 46 -20t20 -46q0 -25 -20 -47q-19 -20 -46 -20t-47 20t-20 47z" />
<glyph unicode="&#xd7;" horiz-adv-x="843" d="M49 463l252 252l-250 250l121 120l250 -251l250 251l121 -120l-250 -250l252 -252l-121 -121l-252 252l-252 -252z" />
<glyph unicode="&#xd8;" horiz-adv-x="1640" d="M49 772q0 154 60 293q62 144 163 245q107 107 246 169q141 63 303 63q99 0 194 -24q92 -23 175 -72l65 94h207l-133 -190q96 -83 163 -198q64 -111 87 -247q12 -66 12 -135q0 -156 -59 -293q-61 -141 -163 -245q-106 -107 -244 -169q-141 -63 -304 -63q-98 0 -193 26 t-177 70l-68 -96h-205l135 193q-118 106 -190 253q-74 151 -74 326zM219 776q0 -135 50 -247q49 -109 141 -197l684 975q-126 65 -277 65q-125 0 -233 -48q-111 -49 -190 -130q-82 -84 -128 -190q-47 -109 -47 -228zM549 236q127 -66 276 -66q127 0 234 49q110 50 189 131 q80 82 127 190q46 107 46 224q0 20 -2 56q-2 29 -6 57q-16 100 -64 185q-46 83 -118 148z" />
<glyph unicode="&#xd9;" horiz-adv-x="897" d="M49 399v1143h170v-1143q0 -45 19 -89q17 -40 49 -72q33 -34 72 -50q42 -18 90 -18q47 0 89 18q37 16 73 50q34 32 51 72q18 42 18 89v1143h168v-1143q0 -78 -31 -152q-30 -71 -85 -128q-53 -55 -127 -87q-73 -32 -156 -32q-82 0 -155 32t-127 86t-86 127t-32 154z M287 1628l12 74l313 -55l-12 -74z" />
<glyph unicode="&#xda;" horiz-adv-x="897" d="M49 399v1143h170v-1143q0 -45 19 -89q17 -40 49 -72q33 -34 72 -50q42 -18 90 -18q47 0 89 18q37 16 73 50q34 32 51 72q18 42 18 89v1143h168v-1143q0 -78 -31 -152q-30 -71 -85 -128q-53 -55 -127 -87q-73 -32 -156 -32q-82 0 -155 32t-127 86t-86 127t-32 154z M287 1647l313 55l12 -74l-313 -55z" />
<glyph unicode="&#xdb;" horiz-adv-x="897" d="M49 399v1143h170v-1143q0 -45 19 -89q17 -40 49 -72q33 -34 72 -50q42 -18 90 -18q47 0 89 18q37 16 73 50q34 32 51 72q18 42 18 89v1143h168v-1143q0 -78 -31 -152q-30 -71 -85 -128q-53 -55 -127 -87q-73 -32 -156 -32q-82 0 -155 32t-127 86t-86 127t-32 154z M236 1636l213 78l213 -78l-25 -69l-188 67l-187 -67z" />
<glyph unicode="&#xdc;" horiz-adv-x="897" d="M49 399v1143h170v-1143q0 -45 19 -89q17 -40 49 -72q33 -34 72 -50q42 -18 90 -18q47 0 89 18q37 16 73 50q34 32 51 72q18 42 18 89v1143h168v-1143q0 -78 -31 -152q-30 -71 -85 -128q-53 -55 -127 -87q-73 -32 -156 -32q-82 0 -155 32t-127 86t-86 127t-32 154z M297 1636q0 27 19 46q20 20 46 20q30 0 48 -20t18 -46t-18 -47q-17 -20 -48 -20q-27 0 -46 20t-19 47zM469 1636q0 27 20 46q22 20 48 20t46 -20q19 -19 19 -46t-19 -47t-46 -20q-28 0 -48 20t-20 47z" />
<glyph unicode="&#xdd;" horiz-adv-x="950" d="M49 1542h207l219 -301l219 301h207l-342 -473v-1069h-168v1069zM315 1647l314 55l12 -74l-313 -55z" />
<glyph unicode="&#xde;" horiz-adv-x="815" d="M49 0v1542h170v-139q110 -7 213 -58q97 -48 174 -131q74 -80 117 -184t43 -217q0 -115 -42 -217t-116 -182q-75 -81 -174 -130q-105 -52 -215 -59v-225h-170zM219 395q80 8 150 44q72 37 119 92q50 58 80 129q30 72 30 153t-30 153q-30 71 -80 129q-47 54 -119 93 q-69 37 -150 45v-838z" />
<glyph unicode="&#xdf;" horiz-adv-x="1075" d="M49 795v168h121v204q0 76 30 145t81 120q50 50 119 80t147 30q75 0 144 -30q71 -31 120 -80q51 -51 81 -120t30 -145q0 -59 -18 -114q-19 -58 -50 -102q-33 -46 -79 -82q-45 -35 -101 -56q-23 -11 -23 -29v-8q0 -10 6 -19q7 -11 21 -12q73 -5 133 -36q64 -34 112 -83 t75 -116q28 -68 28 -135q0 -77 -30 -144t-80 -117t-117 -80t-144 -30h-59v168h59q48 0 83 17q38 18 64 47q25 28 40 65q14 35 14 76q0 36 -13 69q-14 36 -38 63q-25 28 -61 46q-37 19 -78 20q-40 1 -78 21q-36 19 -58 48q-21 28 -34 65t-13 71q0 60 33 114q34 56 100 79 q69 24 103 79q33 54 33 113q0 35 -14 74q-13 37 -39 67t-64 48q-39 18 -88 18q-45 0 -81 -16q-39 -17 -66 -44q-28 -28 -44 -65q-16 -36 -16 -80v-1411h-170v1039h-121z" />
<glyph unicode="&#xe0;" horiz-adv-x="1040" d="M49 362v168h98v242q0 153 61 296q60 140 164 246t240 167q135 61 293 61h86v-1542h-168v362h-506v-362h-170v362h-98zM317 530h506v836q-108 -16 -200 -71q-93 -55 -160 -134q-68 -81 -107 -180q-39 -101 -39 -209v-242zM530 1630l13 74l313 -55l-12 -74z" />
<glyph unicode="&#xe1;" horiz-adv-x="1040" d="M49 362v168h98v242q0 153 61 296q60 140 164 246t240 167q135 61 293 61h86v-1542h-168v362h-506v-362h-170v362h-98zM317 530h506v836q-108 -16 -200 -71q-93 -55 -160 -134q-68 -81 -107 -180q-39 -101 -39 -209v-242zM600 1649l313 55l13 -74l-314 -55z" />
<glyph unicode="&#xe2;" horiz-adv-x="1040" d="M49 362v168h98v242q0 153 61 296q60 140 164 246t240 167q135 61 293 61h86v-1542h-168v362h-506v-362h-170v362h-98zM317 530h506v836q-108 -16 -200 -71q-93 -55 -160 -134q-68 -81 -107 -180q-39 -101 -39 -209v-242zM451 1638l213 78l213 -78l-25 -69l-188 67 l-187 -67z" />
<glyph unicode="&#xe3;" horiz-adv-x="1040" d="M49 362v168h98v242q0 153 61 296q60 140 164 246t240 167q135 61 293 61h86v-1542h-168v362h-506v-362h-170v362h-98zM317 530h506v836q-108 -16 -200 -71q-93 -55 -160 -134q-68 -81 -107 -180q-39 -101 -39 -209v-242zM410 1565q8 50 28 76q23 29 43 40q26 14 42 15 q5 0 11 0.5t9.5 1t5.5 0.5q18 0 37 -8q15 -6 39 -20q14 -8 40 -20q23 -11 40 -12q45 0 57 64h78q-1 -6 -9 -40q-6 -25 -19 -45q-15 -23 -39 -37q-25 -15 -64 -15q-23 0 -47 9q-36 14 -47 19q-21 11 -36 21q-14 10 -18 10h-12q-19 0 -35 -11q-20 -13 -27 -48h-77z" />
<glyph unicode="&#xe4;" horiz-adv-x="1040" d="M49 362v168h98v242q0 153 61 296q60 140 164 246t240 167q135 61 293 61h86v-1542h-168v362h-506v-362h-170v362h-98zM317 530h506v836q-108 -16 -200 -71q-93 -55 -160 -134q-68 -81 -107 -180q-39 -101 -39 -209v-242zM489 1638q0 26 20 46t46 20q29 0 47 -20 q19 -21 19 -46t-19 -47q-17 -20 -47 -20q-27 0 -46 20q-20 22 -20 47zM661 1638q0 26 21 46q22 20 47 20q26 0 46 -20t20 -46q0 -25 -20 -47q-19 -20 -46 -20t-47 20q-21 21 -21 47z" />
<glyph unicode="&#xe5;" horiz-adv-x="1040" d="M49 362v168h98v242q0 153 61 296q60 140 164 246t240 167q135 61 293 61h86v-1542h-168v362h-506v-362h-170v362h-98zM317 530h506v836q-108 -16 -200 -71q-93 -55 -160 -134q-68 -81 -107 -180q-39 -101 -39 -209v-242zM594 1645q0 39 28 70q27 30 74 30q48 0 75 -29 q28 -30 28 -71q0 -44 -28 -74q-27 -29 -75 -29q-32 0 -52 12q-18 11 -31 29q-10 14 -15 34q-4 16 -4 28zM653 1645q0 -20 14 -31t29 -12q21 0 31 13t10 30q0 18 -12 30q-13 13 -35 13q-10 -1 -24 -15q-13 -13 -13 -28z" />
<glyph unicode="&#xe6;" horiz-adv-x="1636" d="M49 362v168h101v242q0 158 59 295q60 140 162 245t240 168q136 62 296 62h680v-166h-592v-846h592v-168h-592v-194h584v-168h-756v362h-506v-362h-167v362h-101zM317 530h506v836q-108 -16 -200 -71q-93 -55 -160 -134q-68 -81 -107 -180q-39 -101 -39 -209v-242z" />
<glyph unicode="&#xe7;" horiz-adv-x="1429" d="M49 774q0 156 62 298q60 138 167 245q105 105 245 166t298 61q162 0 304 -62q146 -64 255 -179l-123 -115q-86 92 -198 140t-238 48q-121 0 -232 -47q-109 -47 -192 -129q-82 -82 -130 -191t-48 -235q0 -123 48 -232q48 -110 130 -192t192 -130q109 -48 232 -48 q127 0 238 49q113 49 198 141l123 -116q-109 -115 -255 -179q-144 -63 -304 -63q-158 0 -300 62t-245 165t-165 245t-62 298zM580 -309l45 69l16 -4q10 -2 16 -2q23 0 44 19q20 18 20 45q0 32 -31 55l-61 37l108 190l74 -41l-70 -122q30 -21 47 -53t17 -68q0 -65 -44 -106 q-43 -40 -100 -40q-47 0 -81 21z" />
<glyph unicode="&#xe8;" horiz-adv-x="956" d="M49 365v170h98v1009h760v-168h-590v-841h590v-170h-590v-197h580v-168h-750v365h-98zM326 1630l12 74l313 -55l-12 -74z" />
<glyph unicode="&#xe9;" horiz-adv-x="956" d="M49 365v170h98v1009h760v-168h-590v-841h590v-170h-590v-197h580v-168h-750v365h-98zM326 1649l313 55l12 -74l-313 -55z" />
<glyph unicode="&#xea;" horiz-adv-x="956" d="M49 365v170h98v1009h760v-168h-590v-841h590v-170h-590v-197h580v-168h-750v365h-98zM274 1638l213 78l213 -78l-24 -69l-189 67l-186 -67z" />
<glyph unicode="&#xeb;" horiz-adv-x="956" d="M49 365v170h98v1009h760v-168h-590v-841h590v-170h-590v-197h580v-168h-750v365h-98zM336 1638q0 27 19 46q20 20 46 20q30 0 48 -20t18 -46t-18 -47q-17 -20 -48 -20q-27 0 -46 20t-19 47zM508 1638q0 27 20 46q22 20 47 20q27 0 47 -20q19 -19 19 -46t-19 -47t-47 -20 q-27 0 -47 20t-20 47z" />
<glyph unicode="&#xec;" horiz-adv-x="231" d="M-45 1630l12 74l314 -55l-13 -74zM33 0v1542h168v-1542h-168z" />
<glyph unicode="&#xed;" horiz-adv-x="231" d="M-45 1649l313 55l13 -74l-314 -55zM33 0v1542h168v-1542h-168z" />
<glyph unicode="&#xee;" horiz-adv-x="231" d="M-94 1638l213 78l213 -78l-25 -69l-188 67l-187 -67zM33 0v1542h168v-1542h-168z" />
<glyph unicode="&#xef;" horiz-adv-x="231" d="M-35 1638q0 26 20 46t46 20q29 0 47 -20t18 -46t-18 -47q-17 -20 -47 -20q-27 0 -46 20q-20 22 -20 47zM33 0v1542h168v-1542h-168zM137 1638q0 26 21 46q22 20 47 20q26 0 46 -20q19 -19 19 -46t-19 -47t-46 -20t-47 20q-21 21 -21 47z" />
<glyph unicode="&#xf0;" horiz-adv-x="1126" d="M49 1010v168h184v362h86q158 0 294 -62q140 -64 241 -168q104 -107 163 -246q60 -141 60 -296q0 -154 -60 -293t-164 -245q-103 -104 -241 -168q-134 -62 -293 -62h-86v1010h-184zM401 174q109 17 201 71q93 55 160 134q67 78 106 180q39 100 39 209q0 111 -39 211 q-39 102 -106 180q-67 79 -160 134q-92 54 -201 71v-186h189v-168h-189v-836z" />
<glyph unicode="&#xf1;" horiz-adv-x="798" d="M49 0v1606l533 -318v254h168v-1542h-168v1092l-365 217v-1309h-168zM184 1565q7 48 29 76q23 29 43 40q26 14 42 15l26 2q17 0 36 -8q15 -6 39 -20q14 -8 40 -20q23 -11 40 -12q46 0 58 64h77q-1 -13 -8 -40q-6 -25 -19 -45q-15 -23 -39 -37q-25 -15 -65 -15q-23 0 -47 9 q-32 12 -46 19q-24 12 -37 21q-14 10 -17 10h-12q-18 0 -35 -11q-20 -13 -27 -48h-78z" />
<glyph unicode="&#xf2;" horiz-adv-x="628" d="M49 1280q0 51 22 101q21 48 57 84q38 38 84 58q48 21 101 21q54 0 102 -21q45 -20 85 -58q37 -35 58 -84q22 -50 22 -101t-22 -101q-21 -49 -58 -84q-40 -38 -85 -58q-48 -21 -102 -21q-53 0 -101 21q-46 20 -84 58q-36 36 -57 84q-22 50 -22 101zM150 1630l12 74 l313 -55l-12 -74zM217 1280q0 -39 29 -68q28 -28 67 -28q42 0 69 28q28 30 28 68q0 41 -28 69q-27 27 -69 27q-39 0 -67 -27q-29 -27 -29 -69z" />
<glyph unicode="&#xf3;" horiz-adv-x="628" d="M49 1280q0 51 22 101q21 48 57 84q38 38 84 58q48 21 101 21q54 0 102 -21q45 -20 85 -58q37 -35 58 -84q22 -50 22 -101t-22 -101q-21 -49 -58 -84q-40 -38 -85 -58q-48 -21 -102 -21q-53 0 -101 21q-46 20 -84 58q-36 36 -57 84q-22 50 -22 101zM150 1649l313 55 l12 -74l-313 -55zM217 1280q0 -39 29 -68q28 -28 67 -28q42 0 69 28q28 30 28 68q0 41 -28 69q-27 27 -69 27q-39 0 -67 -27q-29 -27 -29 -69z" />
<glyph unicode="&#xf4;" horiz-adv-x="628" d="M49 1280q0 51 22 101q21 48 57 84q38 38 84 58q48 21 101 21q54 0 102 -21q45 -20 85 -58q37 -35 58 -84q22 -50 22 -101t-22 -101q-21 -49 -58 -84q-40 -38 -85 -58q-48 -21 -102 -21q-53 0 -101 21q-46 20 -84 58q-36 36 -57 84q-22 50 -22 101zM100 1638l213 78 l213 -78l-24 -69l-189 67l-186 -67zM217 1280q0 -39 29 -68q28 -28 67 -28q42 0 69 28q28 30 28 68q0 41 -28 69q-27 27 -69 27q-39 0 -67 -27q-29 -27 -29 -69z" />
<glyph unicode="&#xf5;" horiz-adv-x="628" d="M49 1280q0 51 22 101q21 48 57 84q38 38 84 58q48 21 101 21q54 0 102 -21q45 -20 85 -58q37 -35 58 -84q22 -50 22 -101t-22 -101q-21 -49 -58 -84q-40 -38 -85 -58q-48 -21 -102 -21q-53 0 -101 21q-46 20 -84 58q-36 36 -57 84q-22 50 -22 101zM98 1565q7 48 29 76 q23 29 43 40q26 14 42 15q5 0 11 0.5t9.5 1t5.5 0.5q17 0 36 -8q15 -6 39 -20q14 -8 40 -20q23 -11 40 -12q46 0 58 64h77q-1 -13 -8 -40q-6 -25 -19 -45q-15 -23 -39 -37q-26 -15 -65 -15q-23 0 -47 9q-32 12 -46 19q-25 12 -37 21q-14 10 -17 10h-12q-19 0 -35 -11 q-20 -13 -27 -48h-78zM217 1280q0 -39 29 -68q28 -28 67 -28q42 0 69 28q28 30 28 68q0 41 -28 69q-27 27 -69 27q-39 0 -67 -27q-29 -27 -29 -69z" />
<glyph unicode="&#xf6;" horiz-adv-x="628" d="M49 1280q0 51 22 101q21 48 57 84q38 38 84 58q48 21 101 21q54 0 102 -21q45 -20 85 -58q37 -35 58 -84q22 -50 22 -101t-22 -101q-21 -49 -58 -84q-40 -38 -85 -58q-48 -21 -102 -21q-53 0 -101 21q-46 20 -84 58q-36 36 -57 84q-22 50 -22 101zM160 1638q0 27 19 46 q20 20 46 20q29 0 47 -20q19 -21 19 -46t-19 -47q-17 -20 -47 -20q-27 0 -46 20t-19 47zM217 1280q0 -39 29 -68q28 -28 67 -28q42 0 69 28q28 30 28 68q0 41 -28 69q-27 27 -69 27q-39 0 -67 -27q-29 -27 -29 -69zM332 1638q0 27 20 46q22 20 47 20q26 0 46 -20t20 -46 q0 -25 -20 -47q-19 -20 -46 -20t-47 20t-20 47z" />
<glyph unicode="&#xf7;" horiz-adv-x="978" d="M49 629v170h881v-170h-881zM381 471q0 44 31 77q30 32 75 32t77 -32t32 -77q0 -46 -32 -76t-77 -30t-75 30q-31 31 -31 76zM381 963q0 43 31 76q30 32 75 32t77 -32t32 -76q0 -45 -32 -77t-77 -32t-75 32q-31 33 -31 77z" />
<glyph unicode="&#xf8;" horiz-adv-x="694" d="M49 983l84 121q-22 32 -37 73q-14 38 -14 85q0 55 20 101q21 48 57 84t84 57q50 22 103 22q37 0 76 -10l18 24h205l-86 -121q25 -35 39 -72q14 -38 14 -85q0 -58 -20 -104q-22 -50 -57 -84q-36 -35 -86 -56q-49 -21 -107 -21q-40 0 -70 11l-18 -25h-205zM248 1260 q0 -35 24 -65t72 -30t73 31q23 29 23 66t-22 66q-23 30 -70 30q-51 0 -76 -31q-24 -30 -24 -67z" />
<glyph unicode="&#xf9;" horiz-adv-x="942" d="M49 770v776h168v-776q0 -108 39 -209q39 -102 106 -180q67 -79 160 -134q92 -54 201 -71v1370h170v-1546h-86q-158 0 -294 62q-140 64 -241 168q-102 105 -162 246q-61 143 -61 294zM315 1630l13 74l313 -55l-12 -74z" />
<glyph unicode="&#xfa;" horiz-adv-x="942" d="M49 770v776h168v-776q0 -108 39 -209q39 -102 106 -180q67 -79 160 -134q92 -54 201 -71v1370h170v-1546h-86q-158 0 -294 62q-140 64 -241 168q-102 105 -162 246q-61 143 -61 294zM315 1649l314 55l12 -74l-313 -55z" />
<glyph unicode="&#xfb;" horiz-adv-x="942" d="M49 770v776h168v-776q0 -108 39 -209q39 -102 106 -180q67 -79 160 -134q92 -54 201 -71v1370h170v-1546h-86q-158 0 -294 62q-140 64 -241 168q-102 105 -162 246q-61 143 -61 294zM264 1638l213 78l213 -78l-24 -69l-189 67l-186 -67z" />
<glyph unicode="&#xfc;" horiz-adv-x="942" d="M49 770v776h168v-776q0 -108 39 -209q39 -102 106 -180q67 -79 160 -134q92 -54 201 -71v1370h170v-1546h-86q-158 0 -294 62q-140 64 -241 168q-102 105 -162 246q-61 143 -61 294zM326 1638q0 27 19 46q20 20 46 20q29 0 47 -20q19 -21 19 -46t-19 -47q-17 -20 -47 -20 q-27 0 -46 20t-19 47zM498 1638q0 27 20 46q22 20 47 20q26 0 46 -20t20 -46q0 -25 -20 -47q-19 -20 -46 -20t-47 20t-20 47z" />
<glyph unicode="&#xfd;" horiz-adv-x="1073" d="M49 1542h178l310 -846l307 846h180l-403 -1106v-436h-168v436zM373 1649l313 55l12 -74l-313 -55z" />
<glyph unicode="&#xfe;" horiz-adv-x="815" d="M49 -2v1542h170v-225q113 -7 214 -58q100 -50 173 -129q74 -80 117 -183q43 -102 43 -218q0 -113 -42 -216q-41 -102 -116 -184q-74 -82 -174 -131q-105 -52 -215 -59v-139h-170zM219 307q80 8 150 44t119 93q50 57 80 130q30 72 30 153t-30 153q-30 71 -80 129 q-47 55 -119 92q-70 36 -150 44v-838z" />
<glyph unicode="&#xff;" horiz-adv-x="1073" d="M49 1542h178l310 -846l307 846h180l-403 -1106v-436h-168v436zM383 1638q0 27 19 46q20 20 47 20q29 0 47 -20t18 -46t-18 -47q-17 -20 -47 -20q-28 0 -47 20t-19 47zM555 1638q0 27 20 46q22 20 48 20t46 -20q19 -19 19 -46t-19 -47t-46 -20q-28 0 -48 20t-20 47z" />
<glyph unicode="&#x152;" horiz-adv-x="1826" d="M49 772q0 156 62 298q60 138 167 245q105 105 244 166q138 61 297 61q55 0 101 -7q52 -8 98 -19v26h747v-170h-579v-190h590v-170h-590v-240q0 -120 47 -229t127 -192q81 -84 187 -131q109 -49 231 -50l-2 -170q-137 5 -254 49q-118 45 -217 123q-100 -79 -223 -126 q-120 -46 -263 -46q-158 0 -298 61t-245 166q-103 103 -165 245t-62 300zM219 772q0 -121 47 -232q46 -109 128 -192q80 -81 191 -130q109 -48 234 -48q105 0 197 33t168 90q-80 101 -122 221q-44 124 -44 258v240h-100v170h100v157q-91 33 -199 33q-123 0 -232 -48 q-110 -48 -191 -129t-129 -190t-48 -233z" />
<glyph unicode="&#x153;" horiz-adv-x="1220" d="M49 1276q0 53 21 101q22 50 57 84q40 38 85 58q48 21 103 21q29 0 50 -4q28 -5 47 -14v18h759v-168h-591v-842h591v-170h-591v-192h579v-168h-747v360h-99v170h99v500q-29 -10 -47 -13q-27 -5 -50 -5q-55 0 -103 21q-45 20 -85 58q-35 34 -57 84q-21 48 -21 101z M219 1276q0 -39 29 -68q28 -28 67 -28q40 0 68 28q29 29 29 68q0 42 -29 69q-28 27 -68 27q-39 0 -67 -27q-29 -27 -29 -69z" />
<glyph unicode="&#x178;" horiz-adv-x="950" d="M49 1542h207l219 -301l219 301h207l-342 -473v-1069h-168v1069zM326 1636q0 27 19 46q20 20 46 20q29 0 47 -20q19 -21 19 -46t-19 -47q-17 -20 -47 -20q-27 0 -46 20t-19 47zM498 1636q0 27 20 46q22 20 47 20q26 0 46 -20t20 -46q0 -25 -20 -47q-19 -20 -46 -20t-47 20 t-20 47z" />
<glyph unicode="&#x2c6;" horiz-adv-x="524" d="M49 1638l213 78l213 -78l-24 -69l-189 67l-186 -67z" />
<glyph unicode="&#x2dc;" horiz-adv-x="528" d="M49 1565q7 48 29 76q23 29 43 40q26 14 42 15q5 0 11 0.5t9 1t5 0.5q18 0 37 -8q15 -6 39 -20q14 -8 40 -20q23 -11 40 -12q45 0 57 64h78q-1 -13 -8 -40q-6 -25 -19 -45q-15 -23 -39 -37q-25 -15 -65 -15q-23 0 -47 9q-32 12 -46 19q-24 12 -37 21q-14 10 -17 10h-13 q-18 0 -34 -11q-20 -13 -27 -48h-78z" />
<glyph unicode="&#x2000;" horiz-adv-x="872" />
<glyph unicode="&#x2001;" horiz-adv-x="1745" />
<glyph unicode="&#x2002;" horiz-adv-x="872" />
<glyph unicode="&#x2003;" horiz-adv-x="1745" />
<glyph unicode="&#x2004;" horiz-adv-x="581" />
<glyph unicode="&#x2005;" horiz-adv-x="436" />
<glyph unicode="&#x2006;" horiz-adv-x="290" />
<glyph unicode="&#x2007;" horiz-adv-x="290" />
<glyph unicode="&#x2008;" horiz-adv-x="218" />
<glyph unicode="&#x2009;" horiz-adv-x="349" />
<glyph unicode="&#x200a;" horiz-adv-x="96" />
<glyph unicode="&#x2010;" horiz-adv-x="688" d="M49 629v170h590v-170h-590z" />
<glyph unicode="&#x2011;" horiz-adv-x="688" d="M49 629v170h590v-170h-590z" />
<glyph unicode="&#x2012;" horiz-adv-x="688" d="M49 629v170h590v-170h-590z" />
<glyph unicode="&#x2013;" horiz-adv-x="978" d="M49 629v170h881v-170h-881z" />
<glyph unicode="&#x2014;" horiz-adv-x="1411" d="M49 629v170h1313v-170h-1313z" />
<glyph unicode="&#x2018;" d="M49 1286q0 10 1 18q1 10 9 27l109 236l65 -31l-63 -143q42 -7 69 -36q25 -26 25 -65q0 -48 -31 -82q-29 -32 -71 -32q-53 0 -82 32q-31 34 -31 76z" />
<glyph unicode="&#x2019;" d="M49 1452q0 48 31 82q30 33 72 33q51 0 81 -33q31 -34 31 -76q0 -9 -1 -17q-1 -11 -9 -28l-109 -235l-65 30l63 144q-41 7 -68 36q-26 28 -26 64z" />
<glyph unicode="&#x201a;" d="M49 100q0 48 31 82q30 33 72 33q51 0 81 -33q31 -34 31 -76q0 -9 -1 -17q-1 -11 -9 -28l-109 -235l-65 31l63 143q-41 7 -68 36q-26 28 -26 64z" />
<glyph unicode="&#x201c;" horiz-adv-x="552" d="M49 1286q0 10 1 18q1 10 9 27l109 236l65 -31l-63 -143q42 -7 69 -36q25 -26 25 -65q0 -48 -31 -82q-29 -32 -71 -32q-53 0 -82 32q-31 34 -31 76zM295 1286q0 10 1 18q1 10 9 27l109 236l65 -31l-63 -143q41 -7 68 -36q26 -28 26 -65q0 -48 -31 -82q-29 -32 -71 -32 q-53 0 -82 32q-31 34 -31 76z" />
<glyph unicode="&#x201d;" horiz-adv-x="559" d="M49 1452q0 48 31 82q30 33 72 33q51 0 81 -33q31 -34 31 -76q0 -9 -1 -17q-1 -11 -9 -28l-109 -235l-65 30l63 144q-41 7 -68 36q-26 28 -26 64zM295 1452q0 48 31 82q30 33 71 33q52 0 82 -33q31 -34 31 -76q0 -9 -1 -17q-1 -11 -9 -28l-109 -235l-65 30l63 144 q-41 7 -68 36q-26 28 -26 64z" />
<glyph unicode="&#x201e;" horiz-adv-x="552" d="M49 100q0 48 31 82q30 33 72 33q51 0 81 -33q31 -34 31 -76q0 -9 -1 -17q-1 -11 -9 -28l-109 -235l-65 31l63 143q-41 7 -68 36q-26 28 -26 64zM295 100q0 48 31 82q30 33 71 33q52 0 82 -33q31 -34 31 -76q0 -9 -1 -17q-1 -11 -9 -28l-109 -235l-65 31l63 143 q-41 7 -68 36q-26 28 -26 64z" />
<glyph unicode="&#x2022;" horiz-adv-x="456" d="M49 795q0 77 51 129q51 53 127 53q39 0 70 -14q33 -15 57 -39t39 -59t15 -70q0 -37 -15 -70t-39 -57t-57 -39t-70 -15q-75 0 -127 54q-51 52 -51 127z" />
<glyph unicode="&#x2026;" horiz-adv-x="927" d="M49 84q0 44 31 77q30 32 76 32q44 0 76 -32t32 -77q0 -46 -32 -76q-33 -31 -76 -31q-45 0 -76 31t-31 76zM356 84q0 44 31 77q30 32 76 32q45 0 77 -32q31 -31 31 -77t-31 -76q-33 -31 -77 -31q-45 0 -76 31t-31 76zM664 84q0 46 30 77q30 32 76 32q45 0 77 -32t32 -77 q0 -46 -32 -76q-33 -31 -77 -31q-45 0 -76 31q-30 30 -30 76z" />
<glyph unicode="&#x202f;" horiz-adv-x="349" />
<glyph unicode="&#x2039;" horiz-adv-x="415" d="M49 840l318 317v-194l-123 -123l123 -123v-195z" />
<glyph unicode="&#x203a;" horiz-adv-x="415" d="M49 522v195l123 123l-123 123v194l318 -317z" />
<glyph unicode="&#x205f;" horiz-adv-x="436" />
<glyph unicode="&#x20ac;" horiz-adv-x="1105" d="M49 565l64 168h45q0 14 -1 20t-1 19q0 12 1 19t1 18h-109l64 168h65q15 101 63 201q48 101 124 181q77 82 173 132q98 51 207 51q86 0 167 -32q76 -30 145 -85l-64 -170q-53 56 -111 85q-64 32 -137 32q-79 0 -144 -36t-114 -93q-46 -53 -83 -127q-33 -66 -52 -139h533 l-64 -168h-495v-76h467l-66 -168h-375q19 -70 52 -138q36 -74 83 -128q49 -57 114 -93t144 -36q51 0 92 14q45 15 83 39v-188q-43 -18 -84 -26q-44 -9 -91 -9q-218 0 -362 162q-76 84 -133 191q-55 105 -72 212h-129z" />
<glyph unicode="&#x2122;" horiz-adv-x="733" d="M49 1464v76h275v-76h-101v-452h-73v452h-101zM340 1012v555l170 -135l174 135v-555h-76v401l-98 -76l-96 74v-399h-74z" />
<glyph unicode="&#xe000;" horiz-adv-x="1546" d="M0 0v1546h1546v-1546h-1546z" />
</font>
</defs>
</svg>
